PathFileType	4	(X/Y/Z)	OpenSim_Sub07_CSBaseline_Gyro.trc
DataRate	CameraRate	NumFrames	NumMarkers	Units	OrigDataRate	OrigDataStartFrame	OrigNumFrames
100	100	13	8	m	100	1948	7788
Frame#	Time	torso_imu_offset_imu	pelvis_imu_offset_imu	tibia_r_imu_offset_imu	femur_r_imu_offset_imu	tibia_l_imu_offset_imu	femur_l_imu_offset_imu	toes_r_imu_offset_imu	toes_l_imu_offset_imu
				X1	Y1	Z1	X2	Y2	Z2	X3	Y3	Z3	X4	Y4	Z4	X5	Y5	Z5	X6	Y6	Z6	X7	Y7	Z7	X8		Y8	Z8	

1948	19.47000000	-0.38311008	-0.00490486	0.11182861	0.38758152	-0.00703487	0.19932730	-1.97359526	-0.85278200	-0.39936317	-0.47930464	0.15827805	-0.96702453	0.94859903	0.51531925	2.91027725	0.63768425	1.77824402	-1.68081246	0.30436556	-0.24173762	0.05163082	0.66841717	-5.04533488	1.27956820
1949	19.48000000	-0.41953670	0.00753346	0.12968048	0.37717237	-0.01007573	0.14417925	-2.04993491	-0.83198753	-0.43006037	0.03012265	0.13574951	-0.97800668	1.82952675	0.56354355	2.81852151	0.90071041	1.71161048	-1.73109224	0.22047024	-0.16987365	0.03778323	0.69064752	-4.68102165	1.29505250
1950	19.49000000	-0.45231105	0.03356529	0.15576682	0.34620194	-0.02350297	0.07593804	-1.84274911	-0.80190493	-0.44377649	0.52414887	0.11487321	-1.01720928	2.64517568	0.56428095	2.66894529	1.10471013	1.69964152	-1.74720883	0.16603996	-0.12057715	0.03287700	0.67871904	-4.69794212	1.39135614
1951	19.50000000	-0.48954275	0.05070988	0.17158559	0.29929171	-0.03723728	0.00724022	-1.36573912	-0.74674705	-0.46491132	0.84385743	0.10351709	-1.03843512	3.17502205	0.46490978	2.39737627	1.20575668	1.62146964	-1.63787095	0.14067927	-0.10792816	0.03001175	1.08632302	-4.70975732	1.59023147
1952	19.51000000	-0.51635494	0.05827310	0.17975177	0.27080195	-0.04617294	-0.06938183	-0.73044528	-0.58817702	-0.52422719	1.03232162	0.09422630	-1.03042858	3.39256997	0.47202510	2.06931212	1.18573751	1.44422044	-1.60622729	0.12629233	-0.10254245	0.02379587	1.40088350	-4.20436298	1.96351956
1953	19.52000000	-0.54086977	0.06253979	0.18265154	0.23738922	-0.05529480	-0.16033261	-0.10321723	-0.42041837	-0.46893983	1.08541296	0.10245727	-0.98434239	3.50789907	0.46974777	1.59576188	1.09398962	1.26618375	-1.55782951	0.10595201	-0.10851999	0.03003121	0.62420271	-4.53739775	2.15667884
1954	19.53000000	-0.55996622	0.05911566	0.17904319	0.20398116	-0.05955121	-0.25233425	0.45471370	-0.28272924	-0.43803269	0.99342405	0.11621073	-0.94906921	3.41662372	0.40387667	1.15061794	0.97130353	1.15711223	-1.50997654	0.07391944	-0.10190353	0.02791671	2.88291875	-2.93639399	1.85815123
1955	19.54000000	-0.56353547	0.06305745	0.16421977	0.18934066	-0.07007779	-0.34067300	0.91939860	-0.22007670	-0.40903537	0.80779635	0.13250127	-0.91563142	3.13557000	0.33573073	0.83290401	0.77892953	1.11731337	-1.40147320	0.08483582	-0.13365361	0.02038236	4.43993067	2.23120570	1.88777191
1956	19.55000000	-0.56867329	0.06753720	0.15156874	0.16451000	-0.06933857	-0.41322773	1.15316645	-0.19628674	-0.39089982	0.63530028	0.15009942	-0.91063805	2.69757133	0.24699112	0.66529101	0.63269103	1.05074401	-1.33814909	0.07096140	-0.14371806	0.01938555	1.78935731	2.44431420	1.77156190
1957	19.56000000	-0.56370476	0.06577996	0.13692134	0.13478242	-0.04659156	-0.46450617	0.96700167	-0.19406704	-0.35634024	0.42246335	0.16962759	-0.90622596	2.21284483	-0.11081599	0.47074334	0.55266629	0.91702978	-1.36094392	0.05122503	-0.15859437	0.02452629	1.08501127	3.38487688	1.86232614
1958	19.57000000	-0.55226084	0.06012559	0.11655747	0.10382449	-0.02607856	-0.48972488	0.35037612	-0.18836907	-0.33013417	0.13101051	0.19561572	-0.89029334	1.88849181	-0.58416195	0.18731562	0.34187344	0.82277886	-1.37399778	0.04336065	-0.14334289	0.02172528	0.00534194	2.86772854	1.72618207
1959	19.58000000	-0.53800694	0.04574039	0.09409274	0.08234895	-0.00641552	-0.49601199	-0.38433327	-0.23868294	-0.36388036	-0.13256075	0.21325571	-0.86669030	1.77043010	-0.97483868	-0.18563238	0.12945534	0.68396445	-1.39603418	0.04070277	-0.14182416	-0.00013022	-0.21802952	2.57951590	1.43559504
1960	19.59000000	-0.53249635	0.03616078	0.07570177	0.06580149	0.01306805	-0.47950556	-0.93284766	-0.32302115	-0.39033172	-0.29171120	0.22458185	-0.86141211	1.72681114	-1.16732003	-0.64758321	-0.07242850	0.55085917	-1.36339974	0.03636672	-0.14575267	-0.02695000	0.01641908	2.48780771	0.88898282
